# xmcd CD Database Entry
#
# Track frame offsets:
# 150
# 16078
# 33327
# 51109
# 67989
# 86984
# 103307
# 121650
# 138387
# 155385
#
# Disc length: 2321 seconds
#
# Revision: 1
# Processed by: cddbd v1.4PL0 Copyright (c) Steve Scherf et al.
# Submitted via: tcd 2.0b
#
DISCID=7c090f0a
DTITLE=Desconhecido - Desconhecido
DYEAR=1900
DGENRE=
TTITLE0=Trilha 1
TTITLE1=Trilha 2
TTITLE2=Trilha 3
TTITLE3=Trilha 4
TTITLE4=Trilha 5
TTITLE5=Trilha 6
TTITLE6=Trilha 7
TTITLE7=Trilha 8
TTITLE8=Trilha 9
TTITLE9=Trilha 10
EXTD=
EXTT0=
EXTT1=
EXTT2=
EXTT3=
EXTT4=
EXTT5=
EXTT6=
EXTT7=
EXTT8=
EXTT9=
PLAYORDER=
